<?xml version="1.0" encoding="UTF-8"?>
<svg width="500" height="500" version="1.1" viewBox="0 0 500 500" xml:space="preserve" xmlns="http://www.w3.org/2000/svg" xmlns:xlink="http://www.w3.org/1999/xlink"><defs><linearGradient id="linearGradient386" x1="-3261" x2="-2857" y1="146.49" y2="589.99" gradientTransform="matrix(.83333 0 0 .83333 2796.7 -54.575)" gradientUnits="userSpaceOnUse"><stop stop-color="#7f37b4" offset="0"/><stop stop-color="#3158de" offset="1"/></linearGradient></defs><circle cx="250" cy="250" r="250" fill="url(#linearGradient386)" fill-rule="evenodd" style="paint-order:fill markers stroke"/><path d="m234.55 365.46-77.23-44.408q-7.3369-4.2477-11.391-11.198-4.0546-6.9507-4.0546-15.446v-88.815q0-8.4954 4.0546-15.446t11.391-11.198l77.23-44.407q7.3369-4.2477 15.446-4.2477t15.446 4.2477l77.23 44.407q7.3369 4.2477 11.391 11.198t4.0546 15.446v88.815q0 8.4954-4.0546 15.446-4.0546 6.9507-11.391 11.198l-77.23 44.408q-7.3369 4.2477-15.446 4.2477t-15.446-4.2477zm0-35.526v-71.052l-61.784-35.912v71.438zm30.892 0 61.784-35.526v-71.438l-61.784 35.912zm-15.446-97.696 61.012-35.912-61.012-35.14-61.012 35.14z" fill="#fff" stroke-width=".38615"/><g fill="#6bbe1d" stroke-width=".38615"><path d="m95.539 172.77v-46.338q0-12.743 9.0746-21.818 9.0746-9.0746 21.818-9.0746h46.338v30.892h-46.338v46.338z"/><path d="m172.77 404.46h-46.338q-12.743 0-21.818-9.0746-9.0746-9.0746-9.0746-21.818v-46.338h30.892v46.338h46.338z"/><path d="m373.57 172.77v-46.338h-46.338v-30.892h46.338q12.743 0 21.818 9.0746 9.0746 9.0746 9.0746 21.818v46.338z"/><path d="m327.23 404.46v-30.892h46.338v-46.338h30.892v46.338q0 12.743-9.0746 21.818-9.0746 9.0746-21.818 9.0746z"/></g></svg>
