<svg x="0" y="0" width="512" height="512" version="1.1"
     xmlns="http://www.w3.org/2000/svg"
     viewBox="0 0 512 512">
    <title>text binary icon</title>
    <desc>text binary icon from the IconExperience.com G-Collection. Copyright by INCORS GmbH (www.incors.com).</desc>
    <g>
        <polygon points="64,0 448,0 448,512 64,512" fill="#dff3fd"/>
        <polygon points="448,0 448,512 64,512" fill="#b1e3fb"/>
        <path d="M128,32l0,64l-16,0l0,-48l-16,0l0,-9.5z M392,416c-13.2,0 -24,10.8 -24,24l0,16c0,13.2 10.8,24 24,24l0,0c13.2,0 24,-10.8 24,-24l0,-16c0,-13.2 -10.8,-24 -24,-24z M392,432l0,0c4.4,0 8,3.6 8,8l0,16c0,4.4 -3.6,8 -8,8l0,0c-4.4,0 -8,-3.6 -8,-8l0,-16c0,-4.4 3.6,-8 8,-8z M120,320c-13.2,0 -24,10.8 -24,24l0,16c0,13.2 10.8,24 24,24l0,0c13.2,0 24,-10.8 24,-24l0,-16c0,-13.2 -10.8,-24 -24,-24z M120,336l0,0c4.4,0 8,3.6 8,8l0,16c0,4.4 -3.6,8 -8,8l0,0c-4.4,0 -8,-3.6 -8,-8l0,-16c0,-4.4 3.6,-8 8,-8z M392,224c-13.2,0 -24,10.8 -24,24l0,16c0,13.2 10.8,24 24,24l0,0c13.2,0 24,-10.8 24,-24l0,-16c0,-13.2 -10.8,-24 -24,-24z M392,240l0,0c4.4,0 8,3.6 8,8l0,16c0,4.4 -3.6,8 -8,8l0,0c-4.4,0 -8,-3.6 -8,-8l0,-16c0,-4.4 3.6,-8 8,-8z M344,128c-13.2,0 -24,10.8 -24,24l0,16c0,13.2 10.8,24 24,24l0,0c13.2,0 24,-10.8 24,-24l0,-16c0,-13.2 -10.8,-24 -24,-24z M344,144l0,0c4.4,0 8,3.6 8,8l0,16c0,4.4 -3.6,8 -8,8l0,0c-4.4,0 -8,-3.6 -8,-8l0,-16c0,-4.4 3.6,-8 8,-8z M392,32c-13.2,0 -24,10.8 -24,24l0,16c0,13.2 10.8,24 24,24l0,0c13.2,0 24,-10.8 24,-24l0,-16c0,-13.2 -10.8,-24 -24,-24z M392,48l0,0c4.4,0 8,3.6 8,8l0,16c0,4.4 -3.6,8 -8,8l0,0c-4.4,0 -8,-3.6 -8,-8l0,-16c0,-4.4 3.6,-8 8,-8z M328,416c-13.2,0 -24,10.8 -24,24l0,16c0,13.2 10.8,24 24,24l0,0c13.2,0 24,-10.8 24,-24l0,-16c0,-13.2 -10.8,-24 -24,-24z M328,432l0,0c4.4,0 8,3.6 8,8l0,16c0,4.4 -3.6,8 -8,8l0,0c-4.4,0 -8,-3.6 -8,-8l0,-16c0,-4.4 3.6,-8 8,-8z M296,320c-13.2,0 -24,10.8 -24,24l0,16c0,13.2 10.8,24 24,24l0,0c13.2,0 24,-10.8 24,-24l0,-16c0,-13.2 -10.8,-24 -24,-24z M296,336l0,0c4.4,0 8,3.6 8,8l0,16c0,4.4 -3.6,8 -8,8l0,0c-4.4,0 -8,-3.6 -8,-8l0,-16c0,-4.4 3.6,-8 8,-8z M280,224c-13.2,0 -24,10.8 -24,24l0,16c0,13.2 10.8,24 24,24l0,0c13.2,0 24,-10.8 24,-24l0,-16c0,-13.2 -10.8,-24 -24,-24z M280,240l0,0c4.4,0 8,3.6 8,8l0,16c0,4.4 -3.6,8 -8,8l0,0c-4.4,0 -8,-3.6 -8,-8l0,-16c0,-4.4 3.6,-8 8,-8z M280,128c-13.2,0 -24,10.8 -24,24l0,16c0,13.2 10.8,24 24,24l0,0c13.2,0 24,-10.8 24,-24l0,-16c0,-13.2 -10.8,-24 -24,-24z M280,144l0,0c4.4,0 8,3.6 8,8l0,16c0,4.4 -3.6,8 -8,8l0,0c-4.4,0 -8,-3.6 -8,-8l0,-16c0,-4.4 3.6,-8 8,-8z M232,32c-13.2,0 -24,10.8 -24,24l0,16c0,13.2 10.8,24 24,24l0,0c13.2,0 24,-10.8 24,-24l0,-16c0,-13.2 -10.8,-24 -24,-24z M232,48l0,0c4.4,0 8,3.6 8,8l0,16c0,4.4 -3.6,8 -8,8l0,0c-4.4,0 -8,-3.6 -8,-8l0,-16c0,-4.4 3.6,-8 8,-8z M216,416c-13.2,0 -24,10.8 -24,24l0,16c0,13.2 10.8,24 24,24l0,0c13.2,0 24,-10.8 24,-24l0,-16c0,-13.2 -10.8,-24 -24,-24z M216,432l0,0c4.4,0 8,3.6 8,8l0,16c0,4.4 -3.6,8 -8,8l0,0c-4.4,0 -8,-3.6 -8,-8l0,-16c0,-4.4 3.6,-8 8,-8z M232,320c-13.2,0 -24,10.8 -24,24l0,16c0,13.2 10.8,24 24,24l0,0c13.2,0 24,-10.8 24,-24l0,-16c0,-13.2 -10.8,-24 -24,-24z M232,336l0,0c4.4,0 8,3.6 8,8l0,16c0,4.4 -3.6,8 -8,8l0,0c-4.4,0 -8,-3.6 -8,-8l0,-16c0,-4.4 3.6,-8 8,-8z M216,223.15c-13.2,0 -24,10.75 -24,24l0,16c0,13.2 10.8,24 24,24l0,0c13.2,0 24,-10.8 24,-24l0,-16c0,-13.25 -10.8,-24 -24,-24z M216,239.15l0,0c4.4,0 8,3.55 8,8l0,16c0,4.4 -3.6,8 -8,8l0,0c-4.4,0 -8,-3.6 -8,-8l0,-16c0,-4.45 3.6,-8 8,-8z M120,128c-13.2,0 -24,10.8 -24,24l0,16c0,13.2 10.8,24 24,24l0,0c13.2,0 24,-10.8 24,-24l0,-16c0,-13.2 -10.8,-24 -24,-24z M120,144l0,0c4.4,0 8,3.6 8,8l0,16c0,4.4 -3.6,8 -8,8l0,0c-4.4,0 -8,-3.6 -8,-8l0,-16c0,-4.4 3.6,-8 8,-8z M168,32c-13.2,0 -24,10.8 -24,24l0,16c0,13.2 10.8,24 24,24l0,0c13.2,0 24,-10.8 24,-24l0,-16c0,-13.2 -10.8,-24 -24,-24z M168,48l0,0c4.4,0 8,3.6 8,8l0,16c0,4.4 -3.6,8 -8,8l0,0c-4.4,0 -8,-3.6 -8,-8l0,-16c0,-4.4 3.6,-8 8,-8z M288,416l0,64l-16,0l0,-48l-16,0l0,-9.5z M416,320l0,64l-16,0l0,-48l-16,0l0,-9.5z M352,224l0,64l-16,0l0,-48l-16,0l0,-9.5z M416,128l0,64l-16,0l0,-48l-16,0l0,-9.5z M352,32l0,64l-16,0l0,-48l-16,0l0,-9.5z M176,416l0,64l-16,0l0,-48l-16,0l0,-9.5z M368,320l0,64l-16,0l0,-48l-16,0l0,-9.5z M176,224l0,64l-16,0l0,-48l-16,0l0,-9.5z M240,128l0,64l-16,0l0,-48l-16,0l0,-9.5z M304,32l0,64l-16,0l0,-48l-16,0l0,-9.5z M128,416l0,64l-16,0l0,-48l-16,0l0,-9.5z M192,320l0,64l-16,0l0,-48l-16,0l0,-9.5z M128,224l0,64l-16,0l0,-48l-16,0l0,-9.5z M192,125.15l0,64l-16,0l0,-48l-16,0l0,-9.5z" fill="#788f9b"/>
        <path d="M112,448l16,-21.35l0,53.35l-16,0z M176,362.65l16,-21.3l0,42.65l-16,0z M256,256l0,8c0,13.2 10.8,24 24,24l0,0c13.2,0 24,-10.8 24,-24l0,-16c0,-13.2 -10.8,-24 -24,-24l0,0z M320.15,170.5c1.25,12.05 11.45,21.5 23.85,21.5l0,0c13.2,0 24,-10.8 24,-24l0,-16c0,-10.7 -7.1,-19.85 -16.8,-22.9z M378.9,92.1l9.7,-12.85c1,0.45 2.2,0.75 3.4,0.75l0,0c4.4,0 8,-3.6 8,-8l0,-8l13.7,-18.25c1.45,3.1 2.3,6.6 2.3,10.25l0,16c0,13.2 -10.8,24 -24,24l0,0c-4.8,0 -9.3,-1.45 -13.1,-3.9z M392,416c-13.2,0 -24,10.8 -24,24l0,16c0,13.2 10.8,24 24,24l0,0c13.2,0 24,-10.8 24,-24l0,-16c0,-13.2 -10.8,-24 -24,-24z M392,432l0,0c4.4,0 8,3.6 8,8l0,16c0,4.4 -3.6,8 -8,8l0,0c-4.4,0 -8,-3.6 -8,-8l0,-16c0,-4.4 3.6,-8 8,-8z M392,224c-13.2,0 -24,10.8 -24,24l0,16c0,13.2 10.8,24 24,24l0,0c13.2,0 24,-10.8 24,-24l0,-16c0,-13.2 -10.8,-24 -24,-24z M392,240l0,0c4.4,0 8,3.6 8,8l0,16c0,4.4 -3.6,8 -8,8l0,0c-4.4,0 -8,-3.6 -8,-8l0,-16c0,-4.4 3.6,-8 8,-8z M344,144l0,0c4.4,0 8,3.6 8,8l0,16c0,4.4 -3.6,8 -8,8l0,0c-4.4,0 -8,-3.6 -8,-8l0,-16c0,-4.4 3.6,-8 8,-8z M328,416c-13.2,0 -24,10.8 -24,24l0,16c0,13.2 10.8,24 24,24l0,0c13.2,0 24,-10.8 24,-24l0,-16c0,-13.2 -10.8,-24 -24,-24z M328,432l0,0c4.4,0 8,3.6 8,8l0,16c0,4.4 -3.6,8 -8,8l0,0c-4.4,0 -8,-3.6 -8,-8l0,-16c0,-4.4 3.6,-8 8,-8z M296,320c-13.2,0 -24,10.8 -24,24l0,16c0,13.2 10.8,24 24,24l0,0c13.2,0 24,-10.8 24,-24l0,-16c0,-13.2 -10.8,-24 -24,-24z M296,336l0,0c4.4,0 8,3.6 8,8l0,16c0,4.4 -3.6,8 -8,8l0,0c-4.4,0 -8,-3.6 -8,-8l0,-16c0,-4.4 3.6,-8 8,-8z M280,240l0,0c4.4,0 8,3.6 8,8l0,16c0,4.4 -3.6,8 -8,8l0,0c-4.4,0 -8,-3.6 -8,-8l0,-16c0,-4.4 3.6,-8 8,-8z M216,416c-13.2,0 -24,10.8 -24,24l0,16c0,13.2 10.8,24 24,24l0,0c13.2,0 24,-10.8 24,-24l0,-16c0,-13.2 -10.8,-24 -24,-24z M216,432l0,0c4.4,0 8,3.6 8,8l0,16c0,4.4 -3.6,8 -8,8l0,0c-4.4,0 -8,-3.6 -8,-8l0,-16c0,-4.4 3.6,-8 8,-8z M232,320c-13.2,0 -24,10.8 -24,24l0,16c0,13.2 10.8,24 24,24l0,0c13.2,0 24,-10.8 24,-24l0,-16c0,-13.2 -10.8,-24 -24,-24z M232,336l0,0c4.4,0 8,3.6 8,8l0,16c0,4.4 -3.6,8 -8,8l0,0c-4.4,0 -8,-3.6 -8,-8l0,-16c0,-4.4 3.6,-8 8,-8z M288,416l0,64l-16,0l0,-48l-16,0l0,-9.5z M416,320l0,64l-16,0l0,-48l-16,0l0,-9.5z M352,224l0,64l-16,0l0,-48l-16,0l0,-9.5z M416,128l0,64l-16,0l0,-48l-16,0l0,-9.5z M176,416l0,64l-16,0l0,-48l-16,0l0,-9.5z M368,320l0,64l-16,0l0,-48l-16,0l0,-9.5z" fill="#546e7a"/>
    </g>
</svg>