<?xml version="1.0" encoding="UTF-8" standalone="no"?>
<svg
        xmlns="http://www.w3.org/2000/svg"
        id="svg887"
        viewBox="0 0 512 512"
        version="1.1"
        height="512"
        width="512"
        y="0"
        x="0">
  <defs
     id="defs891" />
  <title
     id="title873">question icon</title>
  <desc
     id="desc875">question icon from the IconExperience.com G-Collection. Copyright by INCORS GmbH (www.incors.com).</desc>
  <path
     style="fill:#28b5f5;fill-opacity:1"
     d="M 256,16 C 388.55,16 496,123.45 496,256 496,388.55 388.55,496 256,496 123.45,496 16,388.55 16,256 16,123.45 123.45,16 256,16 Z"
     fill="#546e7a"
     id="path877" />
  <path
     style="fill:#0299e3;fill-opacity:1"
     d="M 86.3,425.7 425.7,86.3 C 469.15,129.7 496,189.75 496,256 496,388.55 388.55,496 256,496 189.75,496 129.75,469.15 86.3,425.7 Z"
     fill="#445a64"
     id="path879" />
  <path
     d="m 223.85,311.2 c 0,-19.8 2.2,-35.5 6.75,-46.95 4.45,-11.45 11.7,-21.4 21.7,-29.8 10.1,-8.45 17.75,-16.15 22.95,-23.1 5.2,-7 7.85,-14.75 7.85,-23.15 0,-20.45 -8.85,-30.75 -26.45,-30.75 -8.15,0 -14.75,3 -19.75,8.95 -5.05,6 -7.7,14.1 -8,24.25 h -68.75 c 0.3,-27.15 8.85,-48.25 25.65,-63.4 16.8,-15.15 40.4,-22.7 70.85,-22.7 30.2,0 53.65,7 70.25,20.95 16.6,13.95 24.95,33.9 24.95,59.65 0,11.25 -2.25,21.55 -6.75,30.8 -4.45,9.2 -11.65,18.65 -21.55,28.25 l -23.4,21.8 c -6.65,6.4 -11.25,12.9 -13.8,19.65 -2.65,6.75 -4.05,15.2 -4.3,25.55 z m -8.35,61.9 c 0,-10.1 3.65,-18.3 10.9,-24.75 7.25,-6.45 16.35,-9.65 27.15,-9.65 10.85,0 19.9,3.2 27.15,9.65 7.25,6.45 10.95,14.65 10.95,24.75 0,10 -3.7,18.25 -10.95,24.7 -7.25,6.45 -16.3,9.65 -27.15,9.65 -10.8,0 -19.9,-3.2 -27.15,-9.65 -7.25,-6.45 -10.9,-14.7 -10.9,-24.7 z"
     fill="#ffffff"
     id="path881" />
  <path
     d="m 223.85,311.2 c 0,-9 0.45,-17.15 1.4,-24.45 l 124.1,-124.1 c 1.65,6.9 2.5,14.45 2.5,22.5 0,11.25 -2.25,21.55 -6.75,30.8 -4.45,9.2 -11.65,18.65 -21.55,28.25 l -23.4,21.8 c -6.65,6.4 -11.25,12.9 -13.8,19.65 -2.65,6.75 -4.05,15.2 -4.3,25.55 z m -8.35,61.9 c 0,-10.1 3.65,-18.3 10.9,-24.75 7.25,-6.45 16.35,-9.65 27.15,-9.65 10.85,0 19.9,3.2 27.15,9.65 7.25,6.45 10.95,14.65 10.95,24.75 0,10 -3.7,18.25 -10.95,24.7 -7.25,6.45 -16.3,9.65 -27.15,9.65 -10.8,0 -19.9,-3.2 -27.15,-9.65 -7.25,-6.45 -10.9,-14.7 -10.9,-24.7 z"
     fill="#ebedef"
     id="path883" />
</svg>
