<?xml version="1.0" encoding="UTF-8"?>
<svg width="500" height="500" version="1.1" viewBox="0 0 500 500" xml:space="preserve" xmlns="http://www.w3.org/2000/svg"><defs><linearGradient id="linearGradient386" x1="-3261" x2="-2857" y1="146.49" y2="589.99" gradientTransform="matrix(.83333 0 0 .83333 2796.7 -54.575)" gradientUnits="userSpaceOnUse"><stop stop-color="#7f37b4" offset="0"/><stop stop-color="#3158de" offset="1"/></linearGradient></defs><circle cx="250" cy="250" r="250" fill="url(#linearGradient386)" fill-rule="evenodd" style="paint-order:fill markers stroke"/><path d="m220.76 286.99q10.186 10.598 28.379 10.071 18.189-0.53147 26.633-14.009l95.468-153.54-146.41 100.24q-12.662 8.7806-13.461 27.709-0.80337 18.929 9.387 29.526z" fill="#6abe1e" stroke="#6abe1e" stroke-width="5.2083"/><path d="m350.68 109.4c-28.497-20.125-63.224-31.984-100.68-31.984-96.481 0-175 78.519-175 175 0 44.058 16.373 84.371 43.353 115.17 6.6419 7.5823 13.926 14.586 21.767 20.929 9.796-4.6916 20.404-8.7722 31.671-12.132 22.597-6.738 47.841-10.567 74.479-10.567 28.606 0 55.601 4.4157 79.439 12.107 11.18 3.6076 21.665 7.9352 31.297 12.866 7.9555-6.1668 15.369-13.004 22.152-20.424 28.458-31.135 45.841-72.554 45.841-117.95 0-37.859-12.101-72.943-32.623-101.61l-16.512 26.556c13.085 21.936 20.618 47.588 20.618 75.055 0 41.159-16.861 78.282-44.071 104.86-31.132-12.79-67.414-19.977-106.14-19.977-36.534 0-70.893 6.398-100.81 17.861-25.961-26.413-41.947-62.666-41.947-102.74 0-81.068 65.414-146.48 146.48-146.48 27.594 0 53.355 7.6054 75.358 20.803z" fill="#f9f9f9" stroke="#f9f9f9" stroke-width="5.2083"/></svg>
