<svg x="0" y="0" width="512" height="512" version="1.1"
     xmlns="http://www.w3.org/2000/svg"
     viewBox="0 0 512 512">
    <title>translate icon</title>
    <desc>translate icon from the IconExperience.com G-Collection. Copyright by INCORS GmbH (www.incors.com).</desc>
    <g>
        <path d="M48,16l256,0c17.65,0 32,14.35 32,32l0,256c0,17.65 -14.35,32 -32,32l-256,0c-17.65,0 -32,-14.35 -32,-32l0,-256c0,-17.65 14.35,-32 32,-32z" fill="#ffb100"/>
        <path d="M326.6,25.4c5.8,5.8 9.4,13.8 9.4,22.6l0,256c0,17.65 -14.35,32 -32,32l-256,0c-8.8,0 -16.8,-3.6 -22.6,-9.4z" fill="#ff9f00"/>
        <path d="M219.6,256.1l-87.8,0l-15.3,47.9l-68.5,0l97.55,-256l60.2,0l98.25,256l-68.85,0z M147.15,208.6l57.15,0l-28.65,-88.9z" fill="#ffffff"/>
        <polygon points="219.6,256.1 131.8,256.1 116.5,304 48,304 148.9,203.1 147.15,208.6 204.3,208.6 189.45,162.55 233,119 304,304 235.15,304" fill="#ebedef"/>
        <path d="M208,176l256,0c17.65,0 32,14.35 32,32l0,256c0,17.6 -14.35,32 -32,32l-256,0c-17.65,0 -32,-14.4 -32,-32l0,-256c0,-17.65 14.35,-32 32,-32z" fill="#28b5f5"/>
        <path d="M486.6,185.4c5.8,5.8 9.4,13.8 9.4,22.6l0,256c0,17.6 -14.35,32 -32,32l-256,0c-8.8,0 -16.8,-3.6 -22.6,-9.4z" fill="#0299e3"/>
        <path d="M339.75,407.7c-34.1,27.5 -69.7,44.35 -110.65,57.05l-21.1,-35.6c35.6,-12.05 71.4,-25.75 101.85,-49.2c-24.1,-28.65 -38.85,-61.65 -51.7,-97.05l9.85,-4.2l-54.5,0l0,-40.3l100.6,0c-5.8,-11.9 -12.35,-22.15 -19.55,-33.05l39.55,-13.35c8.75,15.1 16.9,29.95 23.25,46.4l107.55,0l0,40.3l-45.95,0c-10.85,35.9 -26.45,72.5 -49.9,101.2c30.4,23.75 65.9,38.5 101.2,51.9l-22.65,35.3c-38.85,-15.05 -74.75,-32.85 -107.85,-59.4z M298.55,278.7c9.4,26.1 22.4,53.6 40.6,74.2c17.75,-20.55 29.85,-47.8 38.3,-74.2z" fill="#ffffff"/>
        <path d="M339.75,407.7c-34.1,27.5 -69.7,44.35 -110.65,57.05l-8.15,-13.7l44.25,-44.25c15.65,-7.4 30.7,-16.1 44.65,-26.85c-2.75,-3.25 -5.35,-6.55 -7.85,-9.95l28.25,-28.25c2.8,3.9 5.8,7.6 8.9,11.15c12.15,-14.05 21.65,-31.3 29.15,-49.2l65.3,-65.3l31.3,0l0,40.3l-45.95,0c-10.85,35.9 -26.45,72.5 -49.9,101.2c30.4,23.75 65.9,38.5 101.2,51.9l-22.65,35.3c-38.85,-15.05 -74.75,-32.85 -107.85,-59.4z" fill="#ebedef"/>
    </g>
</svg>