<svg x="0" y="0" width="512" height="512" version="1.1"
     xmlns="http://www.w3.org/2000/svg"
     viewBox="0 0 512 512">
    <title>folder document icon</title>
    <desc>folder document icon from the IconExperience.com G-Collection. Copyright by INCORS GmbH (www.incors.com).</desc>
    <g>
        <path d="M202.35,77.8l14.05,20.4c6.15,8.9 15.45,13.8 26.3,13.8l229.3,0c4.4,0 8,3.6 8,8l0,352c0,4.4 -3.6,8 -8,8l-432,0c-4.4,0 -8,-3.6 -8,-8l0,-400c0,-4.4 3.6,-8 8,-8l136,0c10.85,0 20.2,4.9 26.35,13.8z" fill="#ffb100"/>
        <path d="M168,32c-4.4,0 -8,3.6 -8,8l0,216l0,136c0,4.4 3.6,8 8,8l272,0c4.4,0 8,-3.6 8,-8l0,-234.75c0,-8.8 -3.15,-16.4 -9.35,-22.6l-93.3,-93.3c-6.2,-6.2 -13.8,-9.35 -22.6,-9.35z" fill="#dff3fd"/>
        <path d="M411.8,107.8l-249.7,289.55c1.45,1.65 3.55,2.65 5.9,2.65l272,0c4.4,0 8,-3.6 8,-8l0,-234.75c0,-8.8 -3.15,-16.4 -9.35,-22.6z" fill="#b1e3fb"/>
        <path d="M442.9,139.85c-1.2,-1.85 -2.65,-3.6 -4.25,-5.2l-93.3,-93.3c-1.6,-1.6 -3.35,-3.05 -5.2,-4.25c11.85,10.9 11.9,16.65 11.85,26.9l-0.2,56.25c0,4.4 3.6,8 8,8l56.2,-0.25c8.75,-0.05 16,0 26.9,11.85z" fill="#28b5f5"/>
        <path d="M172,265.8l-159.6,0c-4.95,0 -8.6,2.85 -8.1,6.3l27.05,202.9c0.35,2.8 4.2,5 8.6,5c144,0 288,0 432,0c4.4,0 8.35,-2.2 8.7,-5c10.15,-76.15 20.3,-152.3 30.5,-228.4c0.45,-3.65 -3.35,-6.6 -8.35,-6.6l-266.35,0.05c-10.7,0 -19.8,2.9 -26.9,8.5c-3.75,2.95 -7.45,5.95 -11.15,8.9c-6.9,5.55 -15.9,8.35 -26.4,8.35z" fill="#ffd34e"/>
        <path d="M34.5,478.75c1.45,0.8 3.4,1.25 5.45,1.25l432,0c4.4,0 8.35,-2.2 8.7,-5l30.5,-228.4c0.25,-2 -0.8,-3.75 -2.55,-4.9c-158,79.05 -316.05,158.05 -474.1,237.05z" fill="#ffc928"/>
    </g>
</svg>