<svg x="0" y="0" width="512" height="512" version="1.1"
     xmlns="http://www.w3.org/2000/svg"
     viewBox="0 0 512 512">
    <title>folder window icon</title>
    <desc>folder window icon from the IconExperience.com G-Collection. Copyright by INCORS GmbH (www.incors.com).</desc>
    <g>
        <path d="M170.35,61.8l14.05,20.4c6.15,8.9 15.45,13.8 26.3,13.8l197.3,0c4.4,0 8,3.6 8,8l0,336c0,4.4 -3.6,8 -8,8l-400,0c-4.4,0 -8,-3.6 -8,-8l0,-384c0,-4.4 3.6,-8 8,-8l136,0c10.85,0 20.2,4.9 26.35,13.8z" fill="#ffb100"/>
        <path d="M149.55,160l-141.55,0c-4.4,0 -8,3.6 -8,8l0,272c0,4.4 3.6,8 8,8l400,0c4.4,0 8,-3.6 8,-8l0,-304c0,-4.4 -3.6,-8 -8,-8l-201.05,0c-9.35,0 -17.4,3.55 -23.7,10.5l-10,11.05c-6.3,6.9 -14.35,10.45 -23.7,10.45z" fill="#ffd34e"/>
        <path d="M2.7,446c1.4,1.25 3.25,2 5.3,2l400,0c4.4,0 8,-3.6 8,-8l0,-304c0,-2.35 -1.05,-4.5 -2.7,-6z" fill="#ffc928"/>
        <path d="M512,208l0,272l-352,0l0,-272c0,-8.8 7.2,-16 16,-16l320,0c8.8,0 16,7.2 16,16z" fill="#28b5f5"/>
        <path d="M512,208l0,272l-352,0l346.8,-283.75c3.2,2.9 5.2,7.1 5.2,11.75z" fill="#0299e3"/>
        <polygon points="160,256 512,256 512,480 160,480" fill="#dff3fd"/>
        <polygon points="433.8,256 512,256 512,480 160,480" fill="#b1e3fb"/>
        <path d="M464,208c8.85,0 16,7.15 16,16c0,8.85 -7.15,16 -16,16c-8.85,0 -16,-7.15 -16,-16c0,-8.85 7.15,-16 16,-16z M416,208c8.85,0 16,7.15 16,16c0,8.85 -7.15,16 -16,16c-8.85,0 -16,-7.15 -16,-16c0,-8.85 7.15,-16 16,-16z" fill="#dff3fd"/>
        <path d="M479.15,218.85c0.55,1.65 0.85,3.35 0.85,5.15c0,8.85 -7.15,16 -16,16c-2.95,0 -5.65,-0.8 -8.05,-2.15z" fill="#b1e3fb"/>
    </g>
</svg>