<svg x="0" y="0" width="512" height="512" version="1.1"
     xmlns="http://www.w3.org/2000/svg"
     viewBox="0 0 512 512">
    <title>refresh icon</title>
    <desc>refresh icon from the IconExperience.com G-Collection. Copyright by INCORS GmbH (www.incors.com).</desc>
    <g>
        <path d="M192,32l0,80l-48,0c-79.35,0 -144,64.65 -144,144c0,79.35 64.65,144 144,144l50.75,0l-32,-32l32,-32l-50.75,0c-44,0 -80,-36 -80,-80c0,-44 36,-80 80,-80l48,0l0,80l112,-112z" fill="#28b5f5"/>
        <path d="M194.75,336l-50.75,0c-44,0 -80,-36 -80,-80c0,-44 36,-80 80,-80l48,0l0,80l112,-112l-160,0c-61.7,0 -112,50.3 -112,112c0,61.7 50.3,112 112,112l18.75,0z" fill="#0299e3"/>
        <path d="M320,480l0,-80l48,0c79.35,0 144,-64.65 144,-144c0,-79.35 -64.65,-144 -144,-144l-50.75,0l32,32l-32,32l50.75,0c44,0 80,36 80,80c0,44 -36,80 -80,80l-48,0l0,-80l-112,112z" fill="#28b5f5"/>
        <path d="M320,480l0,-80l48,0c79.35,0 144,-64.65 144,-144c0,-79.35 -64.65,-144 -144,-144l-50.75,0l32,32l18.75,0c61.7,0 112,50.3 112,112c0,61.7 -50.3,112 -112,112l-160,0z" fill="#0299e3"/>
    </g>
</svg>