<svg x="0" y="0" width="512" height="512" version="1.1"
     xmlns="http://www.w3.org/2000/svg"
     viewBox="0 0 512 512">
    <title>error icon</title>
    <desc>error icon from the IconExperience.com G-Collection. Copyright by INCORS GmbH (www.incors.com).</desc>
    <g>
        <path d="M256,16c132.55,0 240,107.45 240,240c0,132.55 -107.45,240 -240,240c-132.55,0 -240,-107.45 -240,-240c0,-132.55 107.45,-240 240,-240z" fill="#d74214"/>
        <path d="M425.7,86.3c93.75,93.7 93.75,245.7 0,339.4c-93.7,93.75 -245.7,93.75 -339.4,0z" fill="#bd360c"/>
        <polygon points="165.5,414.4 97.6,346.5 188.1,256 97.6,165.5 165.5,97.6 256,188.1 346.5,97.6 414.4,165.5 323.9,256 414.4,346.5 346.5,414.4 256,323.9" fill="#ffffff"/>
        <polygon points="165.5,414.4 131.55,380.45 222.05,289.95 289.95,222.05 380.45,131.55 414.4,165.5 323.9,256 414.4,346.5 346.5,414.4 256,323.9" fill="#e6e6e6"/>
    </g>
</svg>