<svg x="0" y="0" width="512" height="512" version="1.1"
     xmlns="http://www.w3.org/2000/svg"
     viewBox="0 0 512 512">
    <title>floppy disk window icon</title>
    <desc>floppy disk window icon from the IconExperience.com G-Collection. Copyright by INCORS GmbH (www.incors.com).</desc>
    <g>
        <path d="M288,42.3l0,267.4c0,5.7 -4.6,10.3 -10.3,10.3l-257.15,0l-20.55,-20.55l0,-257.15c0,-5.7 4.6,-10.3 10.3,-10.3l267.4,0c5.7,0 10.3,4.6 10.3,10.3z" fill="#546e7a"/>
        <path d="M288,42.3l0,267.4c0,5.7 -4.6,10.3 -10.3,10.3l-133.7,0l0,-288l133.7,0c5.7,0 10.3,4.6 10.3,10.3z" fill="#445a64"/>
        <path d="M48,32l192,0l0,149.35c0,5.85 -4.3,10.65 -9.6,10.65l-172.8,0c-5.3,0 -9.6,-4.8 -9.6,-10.65z" fill="#dff3fd"/>
        <path d="M144,32l96,0l0,149.35c0,5.85 -4.3,10.65 -9.6,10.65l-86.4,0z" fill="#b1e3fb"/>
        <path d="M240,160l0,24c0,4.4 -4.3,8 -9.6,8l-172.8,0c-5.3,0 -9.6,-3.6 -9.6,-8l0,-24z" fill="#f98b00"/>
        <path d="M240,160l0,24c0,4.4 -4.3,8 -9.6,8l-86.4,0l0,-32z" fill="#f37c00"/>
        <path d="M224,233.6l0,86.4l-160,0l0,-86.4c0,-5.3 4.5,-9.6 10,-9.6l140,0c5.5,0 10,4.3 10,9.6z M89.25,240l0,64l38.75,0l0,-64z" fill="#ebedef"/>
        <path d="M224,233.6l0,86.4l-80,0l0,-96l70,0c5.5,0 10,4.3 10,9.6z" fill="#cdd7db"/>
        <path d="M512,208l0,272l-352,0l0,-272c0,-8.8 7.2,-16 16,-16l320,0c8.8,0 16,7.2 16,16z" fill="#28b5f5"/>
        <path d="M512,208l0,272l-352,0l346.8,-283.75c3.2,2.9 5.2,7.1 5.2,11.75z" fill="#0299e3"/>
        <polygon points="160,256 512,256 512,480 160,480" fill="#dff3fd"/>
        <polygon points="433.8,256 512,256 512,480 160,480" fill="#b1e3fb"/>
        <path d="M464,208c8.85,0 16,7.15 16,16c0,8.85 -7.15,16 -16,16c-8.85,0 -16,-7.15 -16,-16c0,-8.85 7.15,-16 16,-16z M416,208c8.85,0 16,7.15 16,16c0,8.85 -7.15,16 -16,16c-8.85,0 -16,-7.15 -16,-16c0,-8.85 7.15,-16 16,-16z" fill="#dff3fd"/>
        <path d="M479.15,218.85c0.55,1.65 0.85,3.35 0.85,5.15c0,8.85 -7.15,16 -16,16c-2.95,0 -5.65,-0.8 -8.05,-2.15z" fill="#b1e3fb"/>
    </g>
</svg>