<svg x="0" y="0" width="512" height="512" version="1.1"
     xmlns="http://www.w3.org/2000/svg"
     viewBox="0 0 512 512">
    <title>elements tree icon</title>
    <desc>elements tree icon from the IconExperience.com G-Collection. Copyright by INCORS GmbH (www.incors.com).</desc>
    <g>
        <path d="M176,112l0,112l160,0l0,32l-160,0l0,160l144,0l0,32l-160,0c-8.85,0 -16,-7.15 -16,-16l0,-320z" fill="#546e7a"/>
        <path d="M304,352l160,0c8.8,0 16,7.2 16,16l0,128c0,8.8 -7.2,16 -16,16l-160,0c-8.8,0 -16,-7.2 -16,-16l0,-128c0,-8.8 7.2,-16 16,-16z M304,160l160,0c8.8,0 16,7.2 16,16l0,128c0,8.8 -7.2,16 -16,16l-160,0c-8.8,0 -16,-7.2 -16,-16l0,-128c0,-8.8 7.2,-16 16,-16z M80,0l160,0c8.8,0 16,7.2 16,16l0,128c0,8.8 -7.2,16 -16,16l-160,0c-8.8,0 -16,-7.2 -16,-16l0,-128c0,-8.8 7.2,-16 16,-16z" fill="#28b5f5"/>
        <path d="M293.15,507.7l181.7,-151.4c3.15,2.9 5.15,7.1 5.15,11.7l0,128c0,8.8 -7.2,16 -16,16l-160,0c-4.2,0 -8,-1.65 -10.85,-4.3z M293.15,315.7l181.7,-151.4c3.15,2.9 5.15,7.1 5.15,11.7l0,128c0,8.8 -7.2,16 -16,16l-160,0c-4.2,0 -8,-1.65 -10.85,-4.3z M69.15,155.7l181.7,-151.4c3.15,2.9 5.15,7.1 5.15,11.7l0,128c0,8.8 -7.2,16 -16,16l-160,0c-4.2,0 -8,-1.65 -10.85,-4.3z" fill="#0299e3"/>
    </g>
</svg>