<svg x="0" y="0" width="512" height="512" version="1.1"
     xmlns="http://www.w3.org/2000/svg"
     viewBox="0 0 512 512">
    <title>navigate open icon</title>
    <desc>navigate open icon from the IconExperience.com G-Collection. Copyright by INCORS GmbH (www.incors.com).</desc>
    <g>
        <path d="M461.25,306.5l-193.95,-193.95c-6.2,-6.25 -16.4,-6.25 -22.6,0l-193.95,193.95c-2.35,2.3 -3,5.65 -1.75,8.7c1.3,3.05 4.1,4.95 7.4,4.95l399.2,0c3.3,0 6.1,-1.9 7.4,-4.95c1.25,-3.05 0.6,-6.4 -1.75,-8.7z" fill="#4ec1f5"/>
        <path d="M461.25,306.5l-193.95,-193.95c-3.1,-3.15 -7.2,-4.7 -11.3,-4.7l0,212.3l199.6,0c3.3,0 6.1,-1.9 7.4,-4.95c1.25,-3.05 0.6,-6.4 -1.75,-8.7z" fill="#0299e3"/>
    </g>
</svg>