<svg x="0" y="0" width="512" height="512" version="1.1"
     xmlns="http://www.w3.org/2000/svg"
     viewBox="0 0 512 512">
    <title>earth icon</title>
    <desc>earth icon from the IconExperience.com G-Collection. Copyright by INCORS GmbH (www.incors.com).</desc>
    <g>
        <path d="M256,16c132.55,0 240,107.45 240,240c0,132.55 -107.45,240 -240,240c-132.55,0 -240,-107.45 -240,-240c0,-132.55 107.45,-240 240,-240z" fill="#429f46"/>
        <path d="M425.7,86.3c43.45,43.45 70.3,103.45 70.3,169.7c0,132.55 -107.45,240 -240,240c-66.25,0 -126.25,-26.85 -169.7,-70.3z" fill="#3a803d"/>
        <path d="M313.2,161.6c6.25,-2.25 15.45,-2.65 18.8,-1.5c16.8,5.85 16,23.15 33.3,26.05c1.95,0.35 10.95,-5.15 13,-4.8c10.6,1.9 20.65,11.85 29.95,7.15c5.55,-2.8 8.45,-13.25 3.5,-17c-4.8,-3.65 -12.15,-1 -17.4,-4.7c-7.7,-5.5 -14.1,2.2 -20.55,-5.2c-2.9,-3.3 -8.05,-13.75 -11.85,-19.2c-4.05,-5.9 -16.35,-3.5 -14.35,-0.8c6.3,8.45 15.6,9.8 16.8,14.5c1.3,5.1 -11.95,11.85 -8.4,2.6c1.85,-4.85 -7.6,-7.95 -18.6,-13.65c-5.75,-3 -11.3,-10.8 -20,-6.6c-4.3,2.05 -12.4,12.2 -15.6,17c-5.55,8.25 -18.05,6.05 -26.5,1.9c-8.3,-4 -8.5,-24.15 2.3,-32.9c10.35,-8.4 18.85,-3.3 28.9,-6.1c4.1,-1.15 6.2,-5.6 12.35,-9.75c7.3,-4.9 -4.5,-12.65 -0.6,-20.6c3.2,-6.45 13.9,-7.75 19.55,-10.55c5.3,-2.6 11.25,-7 17.05,-3.55c8,4.75 16.65,5.2 24.55,10.1c11.3,7.05 19.75,11.05 30.75,9.5c-37.15,-35.25 -86.4,-57.9 -140.85,-61.1c7.65,5.45 21.15,21 17.45,29.25c-3.6,8.1 -8.85,18.2 -24.6,24.05c-11.6,4.3 -26.9,4.5 -38.6,9.55c-12.05,5.25 -24.1,4.85 -31.05,6.45c-10.9,2.55 0.5,-35.85 -2.65,-40.15c-4.7,-6.4 -33.75,-0.9 -36.25,5.65c-5.85,15.4 7.8,28.4 7.15,31.4c-1.15,5.85 -1.05,29.05 -6.6,35.05c-8.4,9.05 -29.8,17.3 -32.65,17.7c-13.9,1.95 -17.1,16.15 -27.5,24.4c-4.35,3.5 -26.35,26.65 -29.85,33.8c-9.6,19.5 -0.25,31.95 4.1,35.85c7.45,6.75 10.55,7.45 18.85,10.05c3.3,1 34.75,17.15 43.3,25.95c8.7,8.95 13.05,18.3 21.8,23.6c10.55,6.4 29.9,13.65 32.45,18.6c11.6,22.5 7.7,54.05 -25.5,76.45c-8.65,5.8 -26.2,15.35 -21.85,31.35c1.75,6.4 1.5,12 3.85,16.95c33.55,20.1 72.85,31.65 114.85,31.65c123.7,0 224,-100.25 224,-224c0,-10.6 -0.75,-21.05 -2.2,-31.3c-3.3,-4.6 -6.9,-8.5 -9.5,-7.7c-3.75,1.2 -4.05,13.1 -8.15,20c-3.35,5.55 -10.75,6.2 -11.95,7.8c-8.05,10.95 18.75,19.7 7.1,34.8c-5,6.5 -20.15,21.15 -24.2,40.05c-8.65,40.25 -2.95,15.95 -15.9,48.15c-1.9,4.8 -5.35,23.35 -8.1,27.5c-12.35,18.8 -47.3,40.2 -55.8,29.45c-4.9,-6.3 -7.9,-15.8 -9.5,-24.8c-1.55,-9.05 -11,-20.6 -10.05,-27.75c1.45,-11.1 2.35,-14.7 2.6,-27.5c0,-0.55 -7.65,-31.5 -8.9,-34.15c-5.75,-12.2 -15.1,-17.65 -28.3,-13.1c-10.3,3.55 -18.95,-1.65 -27.1,-4.95c-16.3,-6.55 -23.85,-27.8 -27.25,-45.2c-0.05,-0.1 2.5,-27.3 2.6,-28.75c0.5,-7.2 3.85,-14 7.7,-19.5c29.2,-41.9 22.4,-23.9 60.1,-37.45z M126.95,439.15c-12.5,-14.7 -26.2,-32.45 -30.35,-42.7c-4.7,-11.5 -5.95,-32.4 -11.5,-38.8c-11.5,-13.2 -22.05,-23.9 -24.2,-37.4c-2,-12.3 -9.05,-30.2 -10.35,-39.95c-1.8,-13.55 -7.85,-28.5 -18.05,-39.25c-0.3,4.95 -0.5,9.95 -0.5,14.95c0,75.7 37.5,142.55 94.95,183.15z" fill="#4ec1f5"/>
        <path d="M343.75,168.25c6.35,7.2 9.7,15.9 21.55,17.9c1.95,0.35 10.95,-5.15 13,-4.8c10.6,1.9 20.65,11.85 29.95,7.15c5.55,-2.8 8.45,-13.25 3.5,-17c-4.8,-3.65 -12.15,-1 -17.4,-4.7c-7.7,-5.5 -14.1,2.2 -20.55,-5.2c-2.2,-2.5 -5.65,-9.1 -8.85,-14.5l-4.65,4.65c2.1,1.35 3.65,2.6 4.1,4.35c1.3,5.1 -11.95,11.85 -8.4,2.6c0.35,-0.9 0.3,-1.75 -0.1,-2.6z M185.85,326.15c10.1,22.3 5.25,52.35 -26.7,73.9c-8.65,5.8 -26.2,15.35 -21.85,31.35c1.75,6.4 1.5,12 3.85,16.95c33.55,20.1 72.85,31.65 114.85,31.65c123.7,0 224,-100.25 224,-224c0,-10.6 -0.75,-21.05 -2.2,-31.3c-3.3,-4.6 -6.9,-8.5 -9.5,-7.7c-3.75,1.2 -4.05,13.1 -8.15,20c-3.35,5.55 -10.75,6.2 -11.95,7.8c-8.05,10.95 18.75,19.7 7.1,34.8c-5,6.5 -20.15,21.15 -24.2,40.05c-8.65,40.25 -2.95,15.95 -15.9,48.15c-1.9,4.8 -5.35,23.35 -8.1,27.5c-12.35,18.8 -47.3,40.2 -55.8,29.45c-4.9,-6.3 -7.9,-15.8 -9.5,-24.8c-1.55,-9.05 -11,-20.6 -10.05,-27.75c1.45,-11.1 2.35,-14.7 2.6,-27.5c0,-0.55 -7.65,-31.5 -8.9,-34.15c-5.75,-12.2 -15.1,-17.65 -28.3,-13.1c-10.3,3.55 -18.95,-1.65 -27.1,-4.95c-11.1,-4.45 -18.1,-15.75 -22.55,-27.95z M97.6,414.4l5.8,-5.8c6.25,9.45 15.15,20.7 23.55,30.55c-10.45,-7.4 -20.3,-15.7 -29.35,-24.75z" fill="#0299e3"/>
    </g>
</svg>